# xmcd CD database file
#
# Track frame offsets:
#	150
#	27817
#	48586
#	90603
#	120193
#	145332
#	176135
#	217172
#	250811
#	265118
#
# Disc length: 3898 seconds
#
# Revision: 0
# Processed by: cddbd v1.5.2PL0 Copyright (c) Steve Scherf et al.
# Submitted via: CDex 1.70beta2
#
DISCID=8b0f380a
DTITLE=The Outsiders - Altered Laws
DYEAR=2002
DGENRE=Jazz
TTITLE0=Spiral
TTITLE1=Pumpkin
TTITLE2=Spoonin'
TTITLE3=Tides
TTITLE4=Norse Meaning
TTITLE5=99
TTITLE6=Altered Laws
TTITLE7=The Outsiders
TTITLE8=As Your Waltz
TTITLE9=Good Tim e Charlie
EXTD=YEAR: 2002
EXTT0=
EXTT1=
EXTT2=
EXTT3=
EXTT4=
EXTT5=
EXTT6=
EXTT7=
EXTT8=
EXTT9=
PLAYORDER=
